Patient4_TMGait_0pt7_01_left_29_EMG.mot
version=1
nRows=13
nColumns=33
inDegrees=no
endheader
time	1LAddLong	2LGlutMax	3LGlutMed	4LIliopsoas	5LSemiMemb	6LBicFemLong	7LRecFem	8LVastMed	9LVastLat	10LGasMed	11LTibAnt	12lTibPost	13LPeroneusLong	14LSol	15LExtDigLong	16LFlexDigLong	17RAddLong	18RGlutMax	19RGlutMed	20RIliopsoas	21RSemiMemb	22RBicFemLong	23RRecFem	24RVastMed	25RVastLat	26RGasMed	27RTibAnt	28RTibPost	29RPeroneusLong	30RSol	31RExtDigLong	32RFlexDigLong
33.842	0.040894	1.2529	0.060272	0.000305	-0.039215	-0.048523	-0.43793	-0.022125	-0.11841	-0.13443	0.12405	0.10925	-0.099792	-0.17639	0.20279	0.47943	0.2092	0.56183	0.020599	-0.21255	-0.24063	-0.33844	0.95352	0.071716	-0.092163	-0.010071	0.33844	0.001678	-0.13718	0.2243	0.000153	-0.042114
33.843	0.045624	1.4571	-0.027313	0.003357	-0.075989	-0.067749	-0.39963	-0.012054	-0.10132	0.10513	-0.09201	0.10986	-0.15549	0.37415	0.36636	-0.41107	0.23438	0.62073	-0.15793	-0.13733	-0.28229	-0.37338	1.0417	0.037231	-0.12314	-0.001221	0.59601	0.00412	0.024261	0.060425	-0.000458	-0.050201
33.844	0.036469	1.698	-0.027161	-0.000763	-0.070038	-0.35172	-0.47302	-0.006866	-0.10971	0.07309	-0.12741	0.17425	-0.15488	0.21545	0.41306	-0.18356	0.2269	0.699	-0.36789	-0.1239	-0.31708	-0.41107	1.0736	0.13062	-0.11505	0.002441	0.66147	0.002747	0.039063	0.12878	0.002289	-0.035095
33.845	0.0354	1.953	-0.12116	0.012665	-0.053558	-0.19073	-0.41153	-0.007935	-0.099487	-0.088806	-0.039063	0.025177	-0.13229	-0.21606	0.55145	-0.10025	0.23193	0.84351	-0.22797	-0.069275	-0.36575	-0.46402	1.0556	0.10925	-0.10956	-0.007019	0.2066	-0.003052	-0.08316	0.26321	-0.000458	-0.03952
33.846	0.034943	2.1931	-0.052032	0.014648	-0.030365	0.049744	-0.39658	0.004883	-0.070343	-0.10696	0.018768	-0.070953	-0.05249	-0.64362	0.75989	-0.2945	0.1033	0.98755	-0.11383	0.021057	-0.44022	-0.44769	0.92743	0.001221	-0.075836	-0.011902	0.17899	-0.000916	-0.19409	0.19363	0.00061	-0.036163
33.847	0.018768	2.2394	0.13473	0.000763	-0.022888	0.14099	-0.3685	0.004578	-0.057526	-0.13321	0.27252	0.18112	-0.12192	-0.62088	0.61829	-0.71091	0.001526	0.98496	0.18402	0.13886	-0.40146	-0.19852	0.92117	0.000153	-0.058594	-0.001678	-0.23254	0.003967	-0.081329	0.12787	0.001373	-0.040131
33.848	0.015717	2.2009	0.068054	-0.011597	-0.039215	0.21347	-0.31586	0.011749	-0.018616	0.064545	0.34302	0.034943	-0.14328	-0.16464	-0.31754	0.40329	-0.029602	1.0002	0.4985	0.063629	-0.32272	0.13138	1.0776	-0.1326	-0.076752	0.000153	-0.30685	0.000763	-0.054779	0.005951	0.000763	-0.030212
33.849	0.00946	1.8965	-0.037079	-0.022278	-0.053406	0.35477	-0.23331	0.006866	0.22705	-0.086365	0.075378	-0.080109	-0.010071	0.14069	-0.67398	0.25635	-0.1178	1.071	0.44128	0.11292	-0.26062	0.3096	1.2492	-0.11887	-0.086517	0.003815	-0.54367	0	-0.13489	-0.18951	0.001526	-0.037231
33.85	0.004578	1.5779	-0.039978	-0.01236	-0.071411	0.37979	-0.17136	0.004272	0.31189	-0.40253	-0.010223	0.000916	0.1268	0.25909	-0.43808	-0.93842	-0.18234	1.2155	0.10407	0.24857	-0.20676	0.34088	1.4189	-0.062408	-0.05188	0.005188	0.73212	0.00351	-0.38681	-0.23361	-0.005341	-0.035706
33.851	-0.000305	1.2695	0.2771	-0.003815	-0.077209	0.29816	-0.18936	-0.001526	0.35141	-0.47546	-0.057526	0.26413	0.13672	0.37872	-0.48279	0.57465	-0.23682	1.2476	-0.000763	0.24658	-0.10208	0.35461	1.4658	-0.06134	-0.043793	0.004578	0.98969	-0.003662	-0.21194	-0.24506	-0.001068	-0.028839
33.852	-0.000458	0.95291	0.19287	-0.002289	-0.065918	0.15869	-0.16098	0.007935	0.40359	0.010834	-0.002289	-0.20691	0.024719	0.29022	-0.079956	0.32883	-0.19989	1.3356	0.031891	0.2002	-0.089417	0.28778	1.2453	-0.029449	-0.043793	0.015259	1.0954	-0.001221	0.020142	-0.24429	-0.00061	-0.024567
33.853	0.00061	0.64026	0.21774	-0.007782	-0.062408	-0.10956	-0.18265	0.026398	0.37201	0.016937	-0.054932	0.043488	0.027313	-0.22171	-0.049133	-0.3569	-0.1564	1.4055	-0.059662	0.24445	-0.16708	0.18997	1.0477	-0.058136	-0.031738	0.01709	0.6575	-0.002594	0.1799	-0.11444	-0.006866	-0.022583
33.854	0.007629	0.41229	0.12756	-0.00351	-0.056458	-0.31525	-0.3154	0.03418	0.26398	-0.075531	0.1741	0.041199	0.005646	-0.16693	0.8728	0.02533	-0.10895	1.4339	-0.40039	0.25421	-0.23911	0.14297	0.95856	-0.027618	-0.02655	-0.003357	-0.56473	-0.010529	0.11078	0.016174	0.002289	-0.03067
